<?xml version="1.0" encoding="UTF-8"?>
<svg width="195px" height="36px" viewBox="0 0 195 36" version="1.1" xmlns="http://www.w3.org/2000/svg" xmlns:xlink="http://www.w3.org/1999/xlink">
    <!-- Generator: sketchtool 63.1 (101010) - https://sketch.com -->
    <title>03870349-5532-44FF-900E-65DB21EBBA04</title>
    <desc>Created with sketchtool.</desc>
    <g id="Website" stroke="none" stroke-width="1" fill="none" fill-rule="evenodd">
        <g id="About_us" transform="translate(-230.000000, -12.000000)" fill="#3D87F1">
            <g id="Banner" transform="translate(0.000000, -4.000000)">
                <g id="Top_bar" transform="translate(0.000000, 4.000000)">
                    <g id="logo_color_1" transform="translate(230.000000, 12.000000)">
                        <path d="M44.4499988,31.0214388 C46.2046655,31.0214388 47.7679988,30.6341054 49.1399988,29.8594388 C50.5119988,29.0847721 51.6039988,28.0254388 52.4159988,26.6814388 C53.2279988,25.3374388 53.6993321,23.8254388 53.8299988,22.1454388 L53.8299988,22.1454388 L53.8299988,20.4094388 L43.9179988,20.4094388 L43.9179988,21.8934388 L52.1219988,21.8934388 C52.0099988,23.4054388 51.6133321,24.7214388 50.9319988,25.8414388 C50.2506655,26.9614388 49.3593321,27.8154388 48.2579988,28.4034388 C47.1566655,28.9914388 45.9433321,29.2854388 44.6179988,29.2854388 C43.1246655,29.2854388 41.7946655,28.9494388 40.6279988,28.2774388 C39.4613321,27.6054388 38.5466655,26.6441054 37.8839988,25.3934388 C37.2213321,24.1427721 36.8899988,22.6681054 36.8899988,20.9694388 C36.8899988,19.3081054 37.2166655,17.8521054 37.8699988,16.6014388 C38.5233321,15.3507721 39.4239988,14.3894388 40.5719988,13.7174388 C41.7199988,13.0454388 43.0033321,12.7094388 44.4219988,12.7094388 C46.0646655,12.7094388 47.4879988,13.1201054 48.6919988,13.9414388 C49.8959988,14.7627721 50.7499988,15.8361054 51.2539988,17.1614388 L51.2539988,17.1614388 L53.2979988,17.1614388 C52.7193321,15.2387721 51.6553321,13.7174388 50.1059988,12.5974388 C48.5566655,11.4774388 46.6619988,10.9174388 44.4219988,10.9174388 C42.5553321,10.9174388 40.8986655,11.3421054 39.4519988,12.1914388 C38.0053321,13.0407721 36.8806655,14.2307721 36.0779988,15.7614388 C35.2753321,17.2921054 34.8739988,19.0281054 34.8739988,20.9694388 C34.8739988,22.9107721 35.2753321,24.6467721 36.0779988,26.1774388 C36.8806655,27.7081054 38.0099988,28.8981054 39.4659988,29.7474388 C40.9219988,30.5967721 42.5833321,31.0214388 44.4499988,31.0214388 Z M64.0264228,31.0214388 C65.9677561,31.0214388 67.5730895,30.5174388 68.8424228,29.5094388 C70.1117561,28.5014388 70.8864228,27.1854388 71.1664228,25.5614388 L71.1664228,25.5614388 L69.0944228,25.5614388 C68.9077561,26.7374388 68.3477561,27.6707721 67.4144228,28.3614388 C66.4810895,29.0521054 65.3237561,29.3974388 63.9424228,29.3974388 C62.9904228,29.3974388 62.1037561,29.1921054 61.2824228,28.7814388 C60.4610895,28.3707721 59.7937561,27.7314388 59.2804228,26.8634388 C58.7670895,25.9954388 58.5010895,24.9174388 58.4824228,23.6294388 L58.4824228,23.6294388 L71.1384228,23.6294388 C71.2130895,23.2001054 71.2504228,22.7241054 71.2504228,22.2014388 C71.2504228,20.9694388 70.9657561,19.8307721 70.3964228,18.7854388 C69.8270895,17.7401054 68.9964228,16.9047721 67.9044228,16.2794388 C66.8124228,15.6541054 65.5197561,15.3414388 64.0264228,15.3414388 C62.5704228,15.3414388 61.2777561,15.6541054 60.1484228,16.2794388 C59.0190895,16.9047721 58.1370895,17.8101054 57.5024228,18.9954388 C56.8677561,20.1807721 56.5504228,21.5761054 56.5504228,23.1814388 C56.5504228,24.7867721 56.8677561,26.1821054 57.5024228,27.3674388 C58.1370895,28.5527721 59.0190895,29.4581054 60.1484228,30.0834388 C61.2777561,30.7087721 62.5704228,31.0214388 64.0264228,31.0214388 Z M69.2904228,22.6214388 L58.4824228,22.6214388 C58.5197561,21.3521054 58.7950895,20.2927721 59.3084228,19.4434388 C59.8217561,18.5941054 60.4890895,17.9641054 61.3104228,17.5534388 C62.1317561,17.1427721 63.0370895,16.9374388 64.0264228,16.9374388 C64.9970895,16.9374388 65.8930895,17.1427721 66.7144228,17.5534388 C67.5357561,17.9641054 68.1890895,18.5987721 68.6744228,19.4574388 C69.1597561,20.3161054 69.3650895,21.3707721 69.2904228,22.6214388 L69.2904228,22.6214388 Z M81.5588468,31.0214388 C83.0148468,31.0214388 84.3168468,30.7041054 85.4648468,30.0694388 C86.6128468,29.4347721 87.5135135,28.5294388 88.1668468,27.3534388 C88.8201801,26.1774388 89.1468468,24.7867721 89.1468468,23.1814388 C89.1468468,21.5761054 88.8201801,20.1807721 88.1668468,18.9954388 C87.5135135,17.8101054 86.6128468,16.9047721 85.4648468,16.2794388 C84.3168468,15.6541054 83.0148468,15.3414388 81.5588468,15.3414388 C80.1028468,15.3414388 78.7961801,15.6541054 77.6388468,16.2794388 C76.4815135,16.9047721 75.5715135,17.8101054 74.9088468,18.9954388 C74.2461801,20.1807721 73.9148468,21.5761054 73.9148468,23.1814388 C73.9148468,24.7681054 74.2461801,26.1541054 74.9088468,27.3394388 C75.5715135,28.5247721 76.4815135,29.4347721 77.6388468,30.0694388 C78.7961801,30.7041054 80.1028468,31.0214388 81.5588468,31.0214388 Z M81.5588468,29.2854388 C80.5508468,29.2854388 79.6175135,29.0614388 78.7588468,28.6134388 C77.9001801,28.1654388 77.2095135,27.4841054 76.6868468,26.5694388 C76.1641801,25.6547721 75.9028468,24.5254388 75.9028468,23.1814388 C75.9028468,21.8374388 76.1641801,20.7034388 76.6868468,19.7794388 C77.2095135,18.8554388 77.9001801,18.1694388 78.7588468,17.7214388 C79.6175135,17.2734388 80.5508468,17.0494388 81.5588468,17.0494388 C82.5481801,17.0494388 83.4675135,17.2734388 84.3168468,17.7214388 C85.1661801,18.1694388 85.8521801,18.8554388 86.3748468,19.7794388 C86.8975135,20.7034388 87.1588468,21.8374388 87.1588468,23.1814388 C87.1588468,24.5254388 86.8975135,25.6547721 86.3748468,26.5694388 C85.8521801,27.4841054 85.1661801,28.1654388 84.3168468,28.6134388 C83.4675135,29.0614388 82.5481801,29.2854388 81.5588468,29.2854388 Z M100.183271,30.8254388 L100.183271,14.1934388 L105.643271,14.1934388 L105.643271,11.0574388 L90.8032708,11.0574388 L90.8032708,14.1934388 L96.2352708,14.1934388 L96.2352708,30.8254388 L100.183271,30.8254388 Z M111.11721,30.8254388 L111.11721,23.3494388 C111.11721,20.6614388 112.563876,19.3174388 115.45721,19.3174388 L115.45721,19.3174388 L116.60521,19.3174388 L116.60521,15.0894388 C115.42921,15.0894388 114.36521,15.3741054 113.41321,15.9434388 C112.46121,16.5127721 111.695876,17.2921054 111.11721,18.2814388 L111.11721,18.2814388 L111.11721,15.3134388 L107.16921,15.3134388 L107.16921,30.8254388 L111.11721,30.8254388 Z M129.45151,18.2765776 C129.050825,17.3511517 128.422704,16.6061054 127.567149,16.0414388 C126.633815,15.4254388 125.513815,15.1174388 124.207149,15.1174388 C122.900482,15.1174388 121.724482,15.4347721 120.679149,16.0694388 C119.633815,16.7041054 118.817149,17.6234388 118.229149,18.8274388 C117.641149,20.0314388 117.347149,21.4454388 117.347149,23.0694388 C117.347149,24.6934388 117.641149,26.1074388 118.229149,27.3114388 C118.817149,28.5154388 119.633815,29.4347721 120.679149,30.0694388 C121.724482,30.7041054 122.900482,31.0214388 124.207149,31.0214388 C125.513815,31.0214388 126.633815,30.7087721 127.567149,30.0834388 C128.500482,29.4581054 129.163149,28.6227721 129.555149,27.5774388 L129.555149,27.5774388 L129.555149,30.8254388 L133.475149,30.8254388 L133.475149,15.3134388 L129.555149,15.3134388 L129.554999,18.5324388 L129.45151,18.2765776 Z M125.439149,27.5494388 C124.207149,27.5494388 123.217815,27.1527721 122.471149,26.3594388 C121.724482,25.5661054 121.351149,24.4694388 121.351149,23.0694388 C121.351149,21.6694388 121.724482,20.5681054 122.471149,19.7654388 C123.217815,18.9627721 124.207149,18.5614388 125.439149,18.5614388 C126.633815,18.5614388 127.618482,18.9674388 128.393149,19.7794388 C129.167815,20.5914388 129.555149,21.6881054 129.555149,23.0694388 C129.555149,24.4321054 129.167815,25.5194388 128.393149,26.3314388 C127.618482,27.1434388 126.633815,27.5494388 125.439149,27.5494388 Z M143.373088,31.0214388 C145.370421,31.0214388 147.036421,30.4801054 148.371088,29.3974388 C149.705754,28.3147721 150.541088,26.8401054 150.877088,24.9734388 L150.877088,24.9734388 L146.705088,24.9734388 C146.537088,25.7947721 146.154421,26.4434388 145.557088,26.9194388 C144.959754,27.3954388 144.203754,27.6334388 143.289088,27.6334388 C142.243754,27.6334388 141.371088,27.2461054 140.671088,26.4714388 C139.971088,25.6967721 139.621088,24.5627721 139.621088,23.0694388 C139.621088,21.5761054 139.971088,20.4421054 140.671088,19.6674388 C141.371088,18.8927721 142.243754,18.5054388 143.289088,18.5054388 C144.203754,18.5054388 144.959754,18.7434388 145.557088,19.2194388 C146.154421,19.6954388 146.537088,20.3441054 146.705088,21.1654388 L146.705088,21.1654388 L150.877088,21.1654388 C150.541088,19.2987721 149.705754,17.8241054 148.371088,16.7414388 C147.036421,15.6587721 145.370421,15.1174388 143.373088,15.1174388 C141.861088,15.1174388 140.517088,15.4347721 139.341088,16.0694388 C138.165088,16.7041054 137.250421,17.6234388 136.597088,18.8274388 C135.943754,20.0314388 135.617088,21.4454388 135.617088,23.0694388 C135.617088,24.6934388 135.943754,26.1027721 136.597088,27.2974388 C137.250421,28.4921054 138.165088,29.4114388 139.341088,30.0554388 C140.517088,30.6994388 141.861088,31.0214388 143.373088,31.0214388 Z M156.967027,30.8254388 L156.967027,24.0494388 L162.091027,30.8254388 L166.907027,30.8254388 L160.215027,23.0414388 L166.739027,15.3134388 L162.063027,15.3134388 L156.967027,21.7534388 L156.967027,10.1054388 L153.019027,10.1054388 L153.019027,30.8254388 L156.967027,30.8254388 Z M175.124966,31.0214388 C176.412966,31.0214388 177.584299,30.7787721 178.638966,30.2934388 C179.693632,29.8081054 180.556966,29.1361054 181.228966,28.2774388 C181.900966,27.4187721 182.339632,26.4481054 182.544966,25.3654388 L182.544966,25.3654388 L178.372966,25.3654388 C178.204966,26.1307721 177.817632,26.7374388 177.210966,27.1854388 C176.604299,27.6334388 175.843632,27.8574388 174.928966,27.8574388 C173.902299,27.8574388 173.043632,27.5307721 172.352966,26.8774388 C171.662299,26.2241054 171.288966,25.2067721 171.232966,23.8254388 L171.232966,23.8254388 L182.600966,23.8254388 C182.694299,23.3214388 182.740966,22.8734388 182.740966,22.4814388 C182.740966,21.0627721 182.428299,19.7981054 181.802966,18.6874388 C181.177632,17.5767721 180.290966,16.7041054 179.142966,16.0694388 C177.994966,15.4347721 176.655632,15.1174388 175.124966,15.1174388 C173.612966,15.1174388 172.268966,15.4347721 171.092966,16.0694388 C169.916966,16.7041054 169.002299,17.6234388 168.348966,18.8274388 C167.695632,20.0314388 167.368966,21.4454388 167.368966,23.0694388 C167.368966,24.6934388 167.695632,26.1027721 168.348966,27.2974388 C169.002299,28.4921054 169.916966,29.4114388 171.092966,30.0554388 C172.268966,30.6994388 173.612966,31.0214388 175.124966,31.0214388 Z M178.764966,22.0894388 L171.232966,22.0894388 C171.307632,20.8201054 171.708966,19.8587721 172.436966,19.2054388 C173.164966,18.5521054 174.060966,18.2254388 175.124966,18.2254388 C176.170299,18.2254388 177.052299,18.5521054 177.770966,19.2054388 C178.489632,19.8587721 178.820966,20.8201054 178.764966,22.0894388 L178.764966,22.0894388 Z M188.830905,30.8254388 L188.830905,23.3494388 C188.830905,20.6614388 190.277571,19.3174388 193.170905,19.3174388 L193.170905,19.3174388 L194.318905,19.3174388 L194.318905,15.0894388 C193.142905,15.0894388 192.078905,15.3741054 191.126905,15.9434388 C190.174905,16.5127721 189.409571,17.2921054 188.830905,18.2814388 L188.830905,18.2814388 L188.830905,15.3134388 L184.882905,15.3134388 L184.882905,30.8254388 L188.830905,30.8254388 Z" id="GeoTracker" fill-rule="nonzero"></path>
                        <path d="M18.0043396,6.44201064 C24.2721819,6.44201064 29.3521639,11.5456204 29.3521639,17.841837 C29.3521639,19.5204449 28.9896945,21.1134862 28.3409367,22.5487115 L28.172827,22.9041882 L28.2921554,22.8411327 C28.2921554,22.8411327 28.1914236,22.9781423 28.0108812,23.2210231 C27.4746781,24.2260201 26.7920265,25.1414937 25.9931459,25.9378623 C23.2997326,29.5522705 19.141834,35.0910417 18.6404996,35.505963 C17.9343009,36.0919301 17.5944147,35.5710705 17.5588292,35.5113886 L17.5556957,35.505963 L10.0782969,25.9970256 C9.47855532,25.4085068 8.9431429,24.7542158 8.48425862,24.0449375 L8.26125031,23.6857661 L8.12874925,23.5168394 L8.18453917,23.5510918 C7.21518935,21.871945 6.65729017,19.9234497 6.65729017,17.841837 C6.65729017,17.6311328 6.6645222,17.4214665 6.67669037,17.2132995 L6.69835775,16.902231 L9.25074649,16.902231 C9.21820237,17.2112812 9.20115545,17.5250022 9.20115545,17.841837 C9.20115545,22.7266984 13.1428681,26.6867447 18.0043396,26.6867447 C22.8665859,26.6867447 26.8082986,22.7266984 26.8082986,17.841837 C26.8082986,12.9577541 22.8665859,8.99770786 18.0043396,8.99770786 C17.7377878,8.99770786 17.4743354,9.01050927 17.2139824,9.03426683 L16.8257776,9.07788965 L16.8257776,6.50273083 C17.2139824,6.46225071 17.6068364,6.44201064 18.0043396,6.44201064 Z M21.242092,13.5342845 C21.6163493,13.5342845 21.9231939,13.8425562 21.9231939,14.2185543 L21.9231939,14.2185543 L22.9979247,17.1315665 C23.5875931,17.1448004 24.0672314,17.6328973 24.0672314,18.2292007 L24.0672314,18.2292007 L24.0672314,19.6148666 C24.0672314,20.2189546 23.5751953,20.7132792 22.973904,20.7132792 L22.973904,20.7132792 L22.8406281,20.7132792 C22.8561253,20.7778917 22.8654236,20.8456181 22.8654236,20.9149014 L22.8654236,20.9149014 L22.8654236,21.4979709 C22.8654236,21.9697201 22.4810931,22.3550597 22.0115279,22.3550597 L22.0115279,22.3550597 L21.8519068,22.3550597 C21.3823416,22.3550597 20.9980111,21.9697201 20.9980111,21.4979709 L20.9980111,21.4979709 L20.9980111,20.9149014 C20.9980111,20.8456181 21.0073094,20.7778917 21.0228066,20.7132792 L21.0228066,20.7132792 L15.1199233,20.7132792 C15.1354205,20.7778917 15.1447189,20.8456181 15.1447189,20.9149014 L15.1447189,20.9149014 L15.1447189,21.4979709 C15.1447189,21.9697201 14.7603883,22.3550597 14.2908232,22.3550597 L14.2908232,22.3550597 L14.131202,22.3550597 C13.6616369,22.3550597 13.2780812,21.9697201 13.2780812,21.4979709 L13.2780812,21.4979709 L13.2780812,20.9149014 C13.2780812,20.8456181 13.2866047,20.7778917 13.3028767,20.7132792 L13.3028767,20.7132792 L13.1169103,20.7132792 C12.515619,20.7132792 12.0243578,20.2189546 12.0243578,19.6148666 L12.0243578,19.6148666 L12.0243578,18.2292007 C12.0243578,17.6243342 12.515619,17.1300096 13.1169103,17.1300096 L13.1169103,17.1300096 L13.1192349,17.1300096 L14.2280595,14.2185543 C14.2280595,13.8425562 14.5349041,13.5342845 14.9091614,13.5342845 L14.9091614,13.5342845 Z M21.9231939,18.0711725 C21.3939645,18.0711725 20.9646921,18.50322 20.9646921,19.0356894 C20.9646921,19.5666018 21.3939645,19.9978708 21.9231939,19.9978708 C22.4531981,19.9978708 22.8816957,19.5666018 22.8816957,19.0356894 C22.8816957,18.50322 22.4531981,18.0711725 21.9231939,18.0711725 Z M14.2280595,18.0711725 C13.6988302,18.0711725 13.2695577,18.50322 13.2695577,19.0356894 C13.2695577,19.5666018 13.6988302,19.9978708 14.2280595,19.9978708 C14.7572889,19.9978708 15.1873362,19.5666018 15.1873362,19.0356894 C15.1873362,18.50322 14.7572889,18.0711725 14.2280595,18.0711725 Z M21.3180282,14.2699329 L14.8084296,14.2699329 L13.97623,16.9315013 L22.2509597,16.9315013 L21.3180282,14.2699329 Z M15.6452644,6.71283558 L15.6452644,9.15804532 C11.8567936,9.47863389 9.7544607,11.6370635 9.33826573,15.6333343 L6.85656756,15.6333343 C7.5904794,10.5402457 10.520045,7.56674609 15.6452644,6.71283558 Z M15.0235679,3.39524602 L15.0235679,5.14517364 L14.9907824,5.14558124 C14.4361128,5.15694219 7.00676176,5.48297835 5.20639399,14.7926776 L3.35185214,14.7926776 C4.52350915,7.44369619 8.41408106,3.64455232 15.0235679,3.39524602 Z M13.9412806,2.48689958e-14 L13.9412806,1.92810646 C7.36149058,2.49058847 3.34467775,6.41617239 1.89084211,13.7048582 L-4.58300065e-13,13.7048582 L0.000580816437,13.6895142 C0.0212193853,13.191563 0.669897439,0.735430482 13.9412806,2.48689958e-14 Z" id="Combined-Shape"></path>
                    </g>
                </g>
            </g>
        </g>
    </g>
</svg>